<?xml version="1.0" encoding="utf-8"?>
<!-- Generator: Adobe Illustrator 21.0.2, SVG Export Plug-In . SVG Version: 6.00 Build 0)  -->
<svg version="1.1" xmlns="http://www.w3.org/2000/svg" xmlns:xlink="http://www.w3.org/1999/xlink" x="0px" y="0px" width="1400px"
	 height="980px" viewBox="0 0 1400 980" enable-background="new 0 0 1400 980" xml:space="preserve">
<g id="bg">
	<linearGradient id="SVGID_1_" gradientUnits="userSpaceOnUse" x1="700" y1="1007.0933" x2="700" y2="83.0153">
		<stop  offset="0" style="stop-color:#4AC6EF"/>
		<stop  offset="1" style="stop-color:#7386C2"/>
	</linearGradient>
	<rect y="-0.9" fill="url(#SVGID_1_)" width="1400" height="981.8"/>
</g>
<g id="girl_and_her_cat">
	<g>
		<path fill="#85C98F" d="M818.6,283.8c-10.8,0-40.3,10-61.6,30.4c-4.1-17.4-15.8-27.1-36.6-27.1c-23.6,0-44.1,13.3-57.9,28.9
			c-5-19.5-17.4-31.8-41.6-31.8c-23.4,0-42,12.3-54.8,29.7c-4.6-16.8-16.6-27.3-37.4-27.3c-19.7,0-38.4,10.9-51.6,26.7
			c-7.4-9.7-18.6-15.7-33.5-15.7c-12.5,0-24.3,5-34.4,13.1c-5.7-10.7-16.8-17.7-32.6-17.7c-19.1,0-36.6,11.5-48.5,27.6
			c-4.6-17.6-18.6-28.3-42.5-28.3c-18.2,0-34.9,8.6-48,21.5c-6.9-16.9-20.8-26.4-32.7-26.4c-21.4,0-45.1,12.1-59.9,29.7
			c-5-15.4-15.8-27.6-32.6-27.6c-23.8,0-44.3,19.9-52.3,44.4c-8.1-12.3-19.8-19-29.4-19c-5.2,0-18.1,3.6-30.6,10.7v121l886.9,8.3
			c18.1-7.8,37.5-25.1,37.5-45c0-10.2-8.7-25.4-21.5-30.9c4.9-6.8,7.1-13.5,7.1-18.6c0-10.9-10.5-22.2-22.2-22.2
			c-9.6,0-19.8,6.5-28.7,14.2c0.3-3,0.4-6,0.4-8.9C859.6,318.2,847.4,283.8,818.6,283.8z"/>
		<path fill="#6AC28F" d="M806,422c-53-11-107-23-158-2c-23,10-50,7-76,5c-63-7-121-38-186-29c-42,6-79,20-121,26c-33,5-61-8-93-13
			c-60.9-8.7-114.5-2.1-172,13.1v24.3l886.9,8.3c18.1-7.8,37.5-25.1,37.5-45c0-8.8-6.4-21.2-16.4-28
			C889.5,414.6,845.4,430.5,806,422z"/>
	</g>
	<g>
		<path fill="#FFD791" d="M873.6,276.4c1.7-16,7.8-31.1,12.1-46.8c-1.4-0.2-2.9-0.3-4.4-0.3c-12.1,0-25.2,7.2-35,12.7L873.6,276.4z"
			/>
		<path fill="#FFD791" d="M808.1,311.3c8.7,2,17,5.1,24.3,9.9c4.3,2.8,9.2,4.4,14.3,4.5c0.3,0,0.6,0,0.8,0
			c39.5,0,31.5-22.1,33.1-45.5c0.2-3.1-0.3-6.2-1.4-9c-18.7-47.2-14-44.5-68.7-53.8c-76.7-13.1-153.7-39.3-229.3-39.3
			c-21.8,0-43.8,1.7-64.9,7.6c-19.4,5.4-44.1,13.8-55.8,31.4c-3,4.5-5.2,9.6-7.1,14.7c-4.7,12.5-7.3,25.7-10.7,38.6
			c-8,31-19.8,61-44.7,82.3c-6,23.7-17,47.1-17,70.3c0,27,9.2,31,21.5,31c8.7,0,19.1-2.4,27.9-3.6c-0.9-10-6.1-20.5-14.5-25.3
			c-0.6-7.8-1.3-15.7-1.3-23.5c0-4,0.2-8,0.6-11.9c28.2-17.8,59.1-30.8,90.8-41c0.2,3.9,0.4,7.7,0.4,11.6c0,7.3-0.5,14.5-1.8,21.7
			c18,16.7,30.5,39.6,33.9,63.8c10.4-0.8,20.7-1.6,31.1-1.6c6.4,0,12.7,0.3,19.1,1.2c-0.8-11.8-8.2-21.8-18.4-26
			c-5.1-7.2-9.8-14.7-13.5-22.7c2.2-18.6,9.1-36,16.9-52.8c2.7,0.2,5.4,0.4,8.1,0.4c7.7,0,57.7-5.8,78-11c7.4,10.7,9.6,23.1,9.6,36
			c0,9.3-1.1,18.8-2.3,28.1c9.7,11.5,13.8,26.7,13.8,41.8c0,0.4,0,0.8,0,1.1c14.2,1,28.4,0,42.6,1.9c-0.5-9.2-7.4-16-15.3-20.8
			c-2.6-8.2-4-17.2-4-26.2C704,319.6,771.2,355.2,808.1,311.3z"/>
		<path fill="#FFD791" d="M735.6,329.4c0.6,1,29.4,84,80.6,110.7c0.7,0,1.4,0,2.1,0c9.7,0,19.4-0.8,29-0.8c0.1,0,0.1,0,0.2,0
			c-8.6-39.7-59.1-29-59.1-106.1c0-11.7,1.7-23.6,4.8-34.9L735.6,329.4z"/>
		<path fill="#FFD791" d="M863,253.3c1.6-15.5,6.2-30.6,12-44.9c-1.5-0.1-2.9-0.2-4.4-0.2c-18.3,0-36.5,9.9-50.8,21.2L863,253.3z"/>
		<path fill="#FFD791" d="M374.5,121.9c4.6-1.9,7.1-6.9,5.6-11.7c0-0.1,0-0.1-0.1-0.2c-1.7-5.7-8.2-8.5-13.5-5.8
			c-22.4,10.9-39.3,33-39.3,57.5c0,41.1,47.9,92.2,131.4,92.2c6.7,0,13.4-0.7,19.8-3l16.3-51.3c-15.9,8.8-35,13.4-54.2,13.4
			c-54.8,0-87.2-36.9-87.2-63.3C353.4,137.3,362.7,126.8,374.5,121.9z"/>
		<g>
			<path fill="#5D6A7B" d="M853.1,280.4c0.1,0,0.1,0,0.2,0c0.5,0,0.9-0.3,1-0.8c0.2-1,0.3-2.1,0.3-3.1c0-6.2-2.4-9.9-6.4-9.9
				c-2.8,0-6.1,1.5-8.2,2.9c-0.5,0.3-0.6,0.9-0.3,1.4c0.3,0.5,0.9,0.6,1.4,0.3c1.8-1.2,4.7-2.6,7.1-2.6c4,0,4.4,5.5,4.4,7.9
				c0,0.9-0.1,1.8-0.2,2.7C852.2,279.7,852.6,280.3,853.1,280.4z"/>
		</g>
		<g>
			<g>
				<path fill="#5D6A7B" d="M836.7,289.9c-0.2-0.1-0.5,0-0.7,0.2c-0.1,0.2,0,0.5,0.2,0.7c1.2,0.6,2.5,1.2,3.7,1.8
					c6.7,3.2,13.6,6.4,18.7,12c0.1,0.1,0.2,0.2,0.4,0.2c0.1,0,0.2,0,0.3-0.1c0.2-0.2,0.2-0.5,0-0.7c-5.3-5.7-12.3-9-19-12.2
					C839.2,291.1,838,290.5,836.7,289.9z"/>
			</g>
			<g>
				<path fill="#5D6A7B" d="M831.2,299.9c-0.3,0-0.5,0.1-0.6,0.4s0.1,0.5,0.4,0.6c9.4,1.5,16.4,3.1,22.8,5.2c0.1,0,0.1,0,0.2,0
					c0.2,0,0.4-0.1,0.5-0.3c0.1-0.3-0.1-0.5-0.3-0.6C847.7,303,840.6,301.4,831.2,299.9z"/>
			</g>
			<g>
				<path fill="#5D6A7B" d="M836.5,309.4c-2.8,0.3-5.6,0.6-8.4,0.7c-0.3,0-0.5,0.2-0.5,0.5c0,0.3,0.2,0.5,0.5,0.5c0,0,0,0,0,0
					c2.9-0.1,5.7-0.4,8.5-0.7c4.2-0.4,8.6-0.9,12.9-0.8c0,0,0,0,0,0c0.3,0,0.5-0.2,0.5-0.5c0-0.3-0.2-0.5-0.5-0.5
					C845.2,308.5,840.8,309,836.5,309.4z"/>
			</g>
		</g>
		<g>
			<path fill="#E3C082" d="M873.6,251.2c1-4,2.7-7.8,4.2-11.6c-3.9,0.9-7.5,2.9-10.7,5.3C869.4,246.8,871.6,248.9,873.6,251.2z"/>
			<path fill="#E3C082" d="M808.1,311.3c8.7,2,17,5.1,24.3,9.9c4.3,2.8,9.2,4.4,14.3,4.5c0.3,0,0.6,0,0.8,0
				c13.2,0,21.1-2.5,25.8-6.7c-30.2,7.8-65.3-6.9-85.5-30c0,0,0,0,0,0c1.1,10.2,4.5,20.3-4,28c-7,7-15.5,10.7-24.4,13.2
				c6.6-0.1,12,1,13.4,6.8c10.4,39.4,35.1,76.2,70.8,91.7c-14.5-27.9-55.3-26.2-55.3-95.5c0-2.1,0.1-4.1,0.2-6.2
				C795.6,323.3,802.2,318.3,808.1,311.3z"/>
			<path fill="#E3C082" d="M505.1,348.9c2.2-2.6,5.1-4.6,8.3-5.8c-38.9,1.7-70.6,25.7-106,38.9c2.2,14.7,0,28.8-4.3,42.9
				c11.9,3.8,21,14,23.8,25.9c1.2-0.2,2.4-0.4,3.5-0.5c-0.9-10-6.1-20.5-14.5-25.3c-0.6-7.8-1.3-15.7-1.3-23.5c0-4,0.2-8,0.6-11.9
				C443.2,371.9,473.8,359,505.1,348.9z"/>
			<path fill="#E3C082" d="M462,249.4c-59,1.9-133.9-28.4-128.2-95.4c0.8-9.3,2.6-18.7,5.8-27.7c-7.7,10.3-12.4,22.5-12.4,35.3
				c0,39.1,43.5,87.4,119.8,91.9c-0.4,1.7-0.9,3.5-1.3,5.3C450.5,254.5,456.1,251.5,462,249.4z"/>
			<path fill="#E3C082" d="M723.3,442c-0.1-2.3-0.7-4.5-1.6-6.6c-21.9-3.4-37.8-22-43.6-43.1c1-27.4-1.1-58.1,17.7-78.4
				c-50.4,23.6-110.9,30.7-166.2,17.5c2.3,1.5,4.6,2.7,7.2,3.6c14,5,23,16,18,30c-3,8-7,16-10,23c-1,3,1,6,3,9
				c7,10,10.7,11.7,23.9,38.2c4.6,9.1-23.8,4-34,6.2c0.3,1.4,0.5,2.8,0.7,4.3c10.4-0.8,20.7-1.6,31.1-1.6c6.4,0,12.7,0.3,19.1,1.2
				c-0.8-11.8-8.2-21.8-18.4-26c-5.1-7.2-9.8-14.7-13.5-22.7c2.2-18.6,9.1-36,16.9-52.8c2.7,0.2,5.4,0.4,8.1,0.4
				c7.7,0,57.7-5.8,78-11c7.4,10.7,9.6,23.1,9.6,36c0,9.3-1.1,18.8-2.3,28.1c9.7,11.5,13.8,26.7,13.8,41.8c0,0.4,0,0.8,0,1.1
				C694.9,441.2,709.1,440.2,723.3,442z"/>
			<path fill="#E3C082" d="M862.5,217.7c-6.5,1.2-13,3.9-18,8.2c3.9,1.2,7.6,3.2,11.4,4.6C857.8,226.1,860.1,221.9,862.5,217.7z"/>
		</g>
		<path fill="#5D6A7B" d="M867.3,310.3c-4.8,3.9,0.6,12.5,6.2,11.5c3.4-0.6,6.5-3.6,6.5-7.2C880,309.2,871.1,307.2,867.3,310.3z"/>
	</g>
	<g>
		<path fill="#FFD791" d="M902.8,455.4c0,10.8,11.5,18,18.7,25l16-8.2c-5.5-8-10.2-27.7-22.6-27.7
			C910.3,444.6,902.8,447.7,902.8,455.4z"/>
		<path fill="#FFD791" d="M936.3,517.4c8.1-9.2,15.7-18.8,24.3-27.4c-11.2-31.8-3.2-68.9-53.3-68.9c-11,0-41.9,2-41.9,13
			c0,14.3,56.2-0.6,56.2,30.5c0,3.4-3,7.6-3,17.4C918.6,497,926.6,509.2,936.3,517.4z"/>
		<path fill="#44587F" d="M1186.8,906c-1.9,2.3-3.7,4.6-5.6,6.9C1183.1,910.7,1185,908.4,1186.8,906z"/>
		<path fill="#44587F" d="M1229.6,819.3c-0.3,2.2-0.7,4.4-1.1,6.6C1228.9,823.7,1229.3,821.5,1229.6,819.3z"/>
		<path fill="#44587F" d="M1226.9,832.5c-0.9,3.3-1.9,6.6-3,9.8C1225.1,839.1,1226.1,835.8,1226.9,832.5z"/>
		<path fill="#44587F" d="M1223.9,842.3c-0.8,2.2-1.6,4.3-2.4,6.5C1222.3,846.7,1223.2,844.5,1223.9,842.3z"/>
		<path fill="#44587F" d="M1212.4,867.9c-1.1,2.1-2.3,4.1-3.5,6.2C1210.1,872,1211.3,870,1212.4,867.9z"/>
		<path fill="#44587F" d="M1218.7,855.3c-1.9,4.3-4,8.5-6.3,12.6C1214.7,863.7,1216.8,859.5,1218.7,855.3z"/>
		<path fill="#44587F" d="M1221.5,848.8c-0.9,2.2-1.8,4.3-2.8,6.4C1219.7,853.1,1220.6,851,1221.5,848.8z"/>
		<path fill="#44587F" d="M1177.5,917.4c-1.2,1.5-2.5,2.9-3.7,4.3C1175,920.3,1176.2,918.8,1177.5,917.4z"/>
		<path fill="#44587F" d="M1173.8,921.7c-1.2,1.4-2.5,2.8-3.7,4.2C1171.3,924.5,1172.5,923.1,1173.8,921.7z"/>
		<path fill="#44587F" d="M1003.7,789.5C1003.7,789.5,1003.7,789.5,1003.7,789.5c0.1-0.2,0.1-0.5,0.2-0.7
			C1003.8,789,1003.8,789.3,1003.7,789.5z"/>
		<path fill="#44587F" d="M1132.9,975c1.2-1.4,2.4-2.8,3.7-4.4C1135.3,972.2,1134.1,973.7,1132.9,975z"/>
		<path fill="#44587F" d="M1005.1,785c-0.4,1.3-0.8,2.5-1.2,3.8C1004.3,787.5,1004.7,786.3,1005.1,785
			C1005.1,785,1005.1,785,1005.1,785z"/>
		<path fill="#44587F" d="M1163,907c11-18,17-37,20-57c3-15,8-39-10-42c-26-4-51,3-77,2c-32.6,0-62.5-9.5-92.3-20.5
			c-19.9,62.3-33,127.5-38,193c0,0,157.7,0,157.9,0c2,0,5.3-2.9,9.2-7.5c-4,4.5-7.3,7.5-9.2,7.5c0,0-0.9,0-2.6,0
			c1.9-2.6,3.6-5.4,5-8.5c7-14,26-32,15-47C1152,924,1158,915,1163,907z"/>
		<path fill="#44587F" d="M1181.2,912.9c-1.2,1.5-2.5,3-3.7,4.4C1178.7,915.9,1180,914.4,1181.2,912.9z"/>
		<path fill="#44587F" d="M1144.7,959.9c-1.4,1.9-2.8,3.8-4.2,5.6C1141.9,963.7,1143.3,961.8,1144.7,959.9z"/>
		<path fill="#44587F" d="M1148,955.3c-1.1,1.5-2.2,3.1-3.3,4.6C1145.8,958.4,1146.9,956.8,1148,955.3z"/>
		<path fill="#44587F" d="M1165.7,930.6c-0.2,0.3-0.5,0.6-0.8,1C1165.2,931.2,1165.5,930.9,1165.7,930.6z"/>
		<path fill="#44587F" d="M1162.5,934.8c-0.6,0.8-1.1,1.6-1.8,2.4C1161.4,936.4,1162,935.6,1162.5,934.8z"/>
		<path fill="#44587F" d="M1155.2,945.1c-2.3,3.2-4.7,6.7-7.2,10.2C1150.5,951.8,1153,948.3,1155.2,945.1z"/>
		<path fill="#41557A" d="M1121,982.5c1.7,0,2.6,0,2.6,0c3.1,0,9.7-7.5,16.9-17c1.4-1.8,2.8-3.7,4.2-5.6c1.1-1.5,2.2-3.1,3.3-4.6
			c2.5-3.5,4.9-6.9,7.2-10.2c2-2.9,3.9-5.5,5.5-7.8c0.6-0.9,1.2-1.7,1.8-2.4c0.9-1.3,1.7-2.4,2.4-3.3c0.3-0.4,0.5-0.7,0.8-1
			s0.5-0.5,0.7-0.8c1.2-1.3,2.4-2.7,3.7-4c1.2-1.4,2.5-2.8,3.7-4.2s2.5-2.8,3.7-4.3c1.2-1.5,2.5-2.9,3.7-4.4
			c1.9-2.3,3.7-4.6,5.6-6.9c22.8-28.9,43.7-64.6,43.8-100c0-12.5-2.5-24.9-8.4-37c-0.1,0.3-0.1,0.7-0.2,1c0,0.1,0,0.2-0.1,0.3
			c-54.2,30.8-145.4,26.8-216.8,14.8c-0.5,1.5-1,3-1.4,4.5c29.8,11,59.8,20.5,92.3,20.5c26,1,51-6,77-2c18,3,13,27,10,42
			c-3,20-9,39-20,57c-5,8-11,17-22,20c11,15-8,33-15,47C1124.6,977,1122.9,979.8,1121,982.5z"/>
		<path fill="#44587F" d="M1112.7,42.2c-45.1,0-68.8,21.1-73.3,41.7c9.3,1.1,27.7,8.6,30.2,24c0.4,0,0.8,0,1.2,0
			c99.9,0,12.9,122.3,106.6,122.3c15.5,0,27.5-8.5,32.1-18.2c1.1-2.3-1.8-4.4-3.6-2.5c-2.3,2.4-5.3,3.8-9.2,3.8
			c-2.9,0-17.7-6.2-17.7-25.8c0-22.4,14.7-42.9,14.7-81.9C1193.6,71.7,1168.9,42.2,1112.7,42.2z M1163.6,113.6
			c-5-6.5-12.1-11.3-19.3-15.6c3.9,9.9,5.2,20.6,5.5,31.3c-3.5-7.3-10-13.4-16.7-18.6c0.5,3.6,0.8,7.2,0.8,10.9c0,2.5-0.1,5-0.3,7.6
			c-7.5-17.3-24.6-30-43.1-34.3c3.9-0.9,7.8-1.5,11.9-1.5c0.4,0,0.8,0,1.1,0c-0.9-4-3.1-7.6-5.7-11c11.1,1,27.1,5.9,27.4,5.9
			c0.2,0,0.4,0,0.7,0c-1.9-8.4-6.4-16.2-12.8-22.1c0.6,0,1.3,0,1.9,0c6.9,0,13.9,0.7,20.6,2.6c-2-5-4.9-9.6-8.1-14
			c19.6,3.3,35.3,19.1,43.2,37.3c-4.7-3.9-10.4-6.8-16.3-9.1C1159.6,92.3,1162.1,102.9,1163.6,113.6z"/>
		<path fill="#EE428A" d="M1039.3,83.9c-0.8-0.1-1.6-0.1-2.2-0.1c-7.3,0-14.3,3.8-17.8,9.9c18.7,5.3,35.7,15.3,47.7,30.1
			c1.7-3,2.8-7,2.8-12.2c0-1.3-0.1-2.5-0.3-3.6C1067,92.4,1048.7,85,1039.3,83.9z"/>
		<path fill="#44587F" d="M1047.8,263.3c23.1-19.6,37.2-56.9,37.2-85.9c0-22.1-6.9-39.9-18-53.7c-12-14.8-29-24.8-47.7-30.1
			c-10.6-3-21.8-4.5-32.9-4.5c-31.2,0-67.7,9.5-76.9,39.1c0,0,0.1,0,0.1,0c43.2,3.7,71,36.2,88.6,72.8c-2.9,3.2-4.9,6.3-6,9.6
			c0,0.1,0,0.1,0.1,0.2c2.7-7.7,9.2-14.7,17-14.7c10.3,0,13.6,10.8,13.6,21.2c0,9.8-2.5,16.5-5.1,22.1
			C1028,246.9,1038.2,254.8,1047.8,263.3z M1021,174.1c-6.7-8.3-15.3-15-24.5-20.7c2.3,8,3.2,16.4,3.2,24.7
			c-11-21.1-31.1-36.3-50.6-50c10,0.1,19.6,3.1,28.9,6.9c0-5.4-1.5-10.5-3.5-15.5c8,2.2,15.8,4.9,22.9,8.9c-0.7-6-2.5-11.8-5.3-17.2
			c7.6,2.1,14.8,5.3,21.5,9.4c-1.6-6.2-5.1-12.2-8.9-17.6c22,6,37.6,28.7,45.1,50.4c-6.4-7.7-14.1-14.4-23.2-18.4
			c4.9,9.3,7.4,19.7,8.7,30.2c-5.2-8.3-12.9-15.2-21.5-20.2C1017.4,154.4,1019.7,164.2,1021,174.1z"/>
		<path fill="#FFD791" d="M1013.6,342.8c14.4-22.6,33.5-43.8,56.7-56.7c-6.9-8.1-14.5-15.7-22.5-22.8c-9.6-8.5-19.7-16.4-30.1-23.8
			c2.6-5.7,5.1-12.3,5.1-22.1c0-10.4-3.3-21.2-13.6-21.2c-7.8,0-14.2,7-17,14.7c0-0.1,0-0.1-0.1-0.2c0,0.1-0.1,0.1-0.1,0.2
			c-1.4-1.8-2.9-3.6-4.3-5.3c-43.9-20.8-83-21-90.3-46.7c-4.8,10.4-10.7,20.4-15.7,30.7c1.8,25.7,14.1,34.5,14.1,49.8
			c0,18-17.8,41.2-17.8,41.3c0,3.6,16.2,7.4,18.9,8c1.9,0.4,3.9,0.7,5.8,0.8c-0.7,4.5-3.5,8.8-3.5,11.2c0,3.3,7.8,4.9,13.6,3.2
			c-0.9,1.8-6.7,5.8-6.7,7.5c0,4.9,5.9,5.4,11.1,5.8c6.4,10.8,12.5,21.4,22.5,28.2c3.7,2.5,8.4,2.8,12.3,0.8
			c10.6-5.5,21.3-16.3,30.8-29c0.2,0.1,0.4,0.2,0.6,0.4c-0.2-0.1-0.4-0.3-0.6-0.4c13.5-18,24.7-39.8,30.4-55.5
			c2.5,24.9-10.3,53.1-16.1,65.5C1003,331.8,1008.6,337.1,1013.6,342.8z M910.8,242.7c-4.1,0-7.4-3.3-7.4-7.4c0-4.1,3.3-7.4,7.4-7.4
			s7.4,3.3,7.4,7.4C918.2,239.4,914.9,242.7,910.8,242.7z M925.9,219.8c-2.2-3.2-7-4.9-11-4.9c-6,0-12.3,3.2-16.2,7.9
			c-0.1-0.4-0.1-0.9-0.1-1.3c0-7.6,9.3-12.2,14.7-12.2c3.3,0,12.6,2.5,12.6,9.5C926,219.1,926,219.4,925.9,219.8z M945.7,272.1
			c-8.8,0-16-7.2-16-16c0-8.8,7.2-16,16-16s16,7.2,16,16C961.7,264.9,954.6,272.1,945.7,272.1z M1005.4,207.6c5.6,0,7.7,7,7.7,11.5
			c0,2.8-1.4,7.2-4.3,7.7c0,0-0.1,0-0.1,0c-0.2,0-0.5-0.2-0.5-0.4c0-0.3,0.1-0.5,0.4-0.6c2-0.3,3.5-3.8,3.5-6.7
			c0-4.3-2.1-10.5-6.7-10.5c-3.7,0-5.4,3.5-5.4,6.8c0,1.3,0.3,2.6,0.8,3.7c0.1,0.2,0,0.5-0.2,0.7c-0.2,0.1-0.5,0-0.7-0.2
			c-0.6-1.2-0.9-2.6-0.9-4.1C999,211.7,1001,207.6,1005.4,207.6z M1006.7,234.1c0.1,0,0.1,0,0.2,0c0.3,0,0.5,0.2,0.6,0.4
			c0,0.3-0.2,0.5-0.4,0.6c-0.1,0-0.2,0-0.3,0c-1.8,0-4.5-1.3-4.5-5c0-3.7,2.3-7.6,6.1-7.8c0.3,0,0.5,0.2,0.5,0.5
			c0,0.3-0.2,0.5-0.5,0.5c-3.2,0.2-5.2,3.6-5.2,6.8C1003.2,233.4,1005.7,234.1,1006.7,234.1z M1003.6,250.3c-3.1,0-6.6-1.4-6.6-5.2
			c0-2,1-3.9,2.6-4.9c0.2-0.2,0.5-0.1,0.7,0.1c0.2,0.2,0.1,0.5-0.1,0.7c-1.3,0.9-2.2,2.5-2.2,4.1c0,3.1,2.9,4.2,5.6,4.2
			c6.4,0,11.3-7.6,12.8-12.9c0.1-0.3,0.4-0.4,0.6-0.3c0.3,0.1,0.4,0.3,0.3,0.6C1015.8,242.3,1010.5,250.3,1003.6,250.3z"/>
		<path fill="#FFD791" d="M994.9,325.3c-0.2-0.1-0.3-0.3-0.5-0.4C994.6,325.1,994.8,325.2,994.9,325.3z"/>
		<path fill="#FFD791" d="M992.7,323.7c-0.2-0.2-0.5-0.3-0.7-0.5C992.2,323.3,992.5,323.5,992.7,323.7z"/>
		<path fill="#FFD791" d="M988.1,320.5c-0.3-0.2-0.6-0.4-0.8-0.6C987.6,320.1,987.8,320.3,988.1,320.5z"/>
		<path fill="#FFD791" d="M985.8,319c-0.3-0.2-0.6-0.4-0.9-0.5C985.2,318.6,985.5,318.8,985.8,319z"/>
		<path fill="#FFD791" d="M990.4,322c-0.3-0.2-0.5-0.4-0.8-0.5C989.9,321.7,990.2,321.9,990.4,322z"/>
		<path fill="#E3C082" d="M983.5,317.5c0.5,0.3,1,0.6,1.5,0.9c0.3,0.2,0.6,0.4,0.9,0.5c0.5,0.3,1,0.6,1.5,1c0.3,0.2,0.6,0.4,0.8,0.6
			c0.5,0.3,1,0.7,1.5,1c0.3,0.2,0.5,0.4,0.8,0.5c0.5,0.4,1.1,0.7,1.6,1.1c0.2,0.2,0.5,0.3,0.7,0.5c0.6,0.4,1.2,0.9,1.7,1.3
			c0.2,0.1,0.3,0.2,0.5,0.4c0.7,0.6,1.5,1.1,2.2,1.7v0c5.8-12.4,18.7-40.6,16.1-65.5c-5.7,15.8-16.9,37.5-30.4,55.5
			C983.1,317.2,983.3,317.4,983.5,317.5z"/>
		<path fill="#44587F" d="M907.1,146.2c-3.7-0.8-7.2-1.3-10.3-1.5c-1.5-0.1-2.6-1.1-3.2-2.2c-11.2,9.5-18.4,23.3-18.4,37.4
			c0,5.5,1.1,11,3.4,16.3c1-2.2,2-4.4,3-6.6c5-10.3,11-20.2,15.7-30.7c7.3,25.7,46.4,25.9,90.3,46.7c-7.5-9.1-14.7-16.9-21.6-23.6
			c-5.3-1.5-11.5-3.7-17.5-8c0,0,0,0,0,0.1c0,2.5,0.3,5,1,7.5c-6.8-3.1-13.2-7.4-18.7-12.5c0.4,2.7,1,5.4,1,8.1
			C932,178.3,910,164.7,907.1,146.2z"/>
		<path fill="#44587F" d="M966.2,182c-24.1-23.4-44-32.6-59-35.9c2.8,18.6,24.9,32.1,24.9,31c0-2.7-0.6-5.4-1-8.1
			c5.5,5,11.9,9.3,18.7,12.5c-0.7-2.4-1-4.9-1-7.5c0,0,0,0,0-0.1C954.7,178.3,960.9,180.5,966.2,182z"/>
		<linearGradient id="SVGID_2_" gradientUnits="userSpaceOnUse" x1="906.8274" y1="164.0864" x2="972.6965" y2="164.0864">
			<stop  offset="0" style="stop-color:#4AC6EF"/>
			<stop  offset="1" style="stop-color:#7386C2"/>
		</linearGradient>
		<path fill="url(#SVGID_2_)" d="M966.2,182c-24.1-23.4-44-32.6-59-35.9c2.8,18.6,24.9,32.1,24.9,31c0-2.7-0.6-5.4-1-8.1
			c5.5,5,11.9,9.3,18.7,12.5c-0.7-2.4-1-4.9-1-7.5c0,0,0,0,0-0.1C954.7,178.3,960.9,180.5,966.2,182z"/>
		<path fill="#EE428A" d="M909.5,128.3c-0.8,0-1.6,0.2-2.3,0.6c-4.3,2.9-8.6,5.9-12.6,9.3c-1.3,1.1-1.6,2.8-1,4.2
			c0.5,1.2,1.6,2.1,3.2,2.2c3.1,0.2,6.6,0.7,10.3,1.5c15.1,3.3,34.9,12.5,59,35.9c6.9,6.7,14.1,14.4,21.6,23.6
			c1.4,1.7,2.8,3.5,4.3,5.3c0-0.1,0.1-0.1,0.1-0.2c1.1-3.3,3.1-6.4,6-9.6C980.6,164.5,952.8,131.9,909.5,128.3
			C909.5,128.3,909.5,128.3,909.5,128.3z"/>
		<path fill="#437BBF" d="M1007.4,770.7c0.2-0.4,0.4-0.8,0.5-1.3C1007.7,769.8,1007.6,770.2,1007.4,770.7z"/>
		<path fill="#437BBF" d="M1010.8,762.3c0.1-0.4,0.3-0.7,0.4-1.1C1011,761.6,1010.9,761.9,1010.8,762.3z"/>
		<path fill="#437BBF" d="M1008.5,768c0.2-0.4,0.3-0.8,0.5-1.2C1008.9,767.1,1008.7,767.6,1008.5,768z"/>
		<path fill="#437BBF" d="M1021.1,731.8c0-0.1,0.1-0.2,0.1-0.4C1021.1,731.5,1021.1,731.6,1021.1,731.8z"/>
		<path fill="#437BBF" d="M1006.3,773.3c0.2-0.4,0.4-0.8,0.5-1.2C1006.6,772.4,1006.4,772.8,1006.3,773.3z"/>
		<path fill="#437BBF" d="M1003.8,778.6c0.2-0.5,0.5-1,0.7-1.5C1004.3,777.6,1004.1,778.1,1003.8,778.6z"/>
		<path fill="#437BBF" d="M1002.8,780.8c0.2-0.4,0.4-0.8,0.6-1.2C1003.2,780,1003,780.4,1002.8,780.8z"/>
		<path fill="#437BBF" d="M1022,728.5c0-0.1,0.1-0.2,0.1-0.3C1022.1,728.3,1022,728.4,1022,728.5z"/>
		<path fill="#437BBF" d="M1011.9,759.3c0.1-0.3,0.2-0.6,0.3-0.9C1012.1,758.7,1012,759,1011.9,759.3z"/>
		<path fill="#437BBF" d="M1005.1,775.8c0.2-0.4,0.4-0.8,0.5-1.2C1005.5,775,1005.3,775.4,1005.1,775.8z"/>
		<path fill="#437BBF" d="M1009.6,765.2c0.2-0.4,0.3-0.8,0.5-1.2C1009.9,764.4,1009.8,764.8,1009.6,765.2z"/>
		<path fill="#437BBF" d="M1018.2,741.2c0.1-0.2,0.1-0.3,0.2-0.5C1018.3,740.9,1018.2,741,1018.2,741.2z"/>
		<path fill="#437BBF" d="M1077,710c-4,4-52,36-52,59c1,2,3,4,4,5c63.4,20.5,129.3,13.2,193-4.1c0.1-0.3,0.1-0.7,0.2-1
			c6.1-32.6,14.3-124.4,14.3-157.1c0-119.3-42.1-241.9-142.1-308.3c1.1-2.3,1.7-4.4,1.7-6.3c0-6.4-5-13.4-10.8-18.1
			c-5.2,1.9-10.2,4.3-15.1,6.9c-23.3,12.9-42.3,34.1-56.7,56.7c-3.1,4.9-6,9.8-8.7,14.7c3.4,5.9,8.9,11.1,14.6,15.1
			c2.1-1.7,4.5-3.5,7-5.5c1.4,4.2,2.1,8.4,2.1,12.8c0,29.4-27.6,59.9-27.6,95.5c0,28.5,17.5,32.1,40,68.2c0.6,4.5,1.1,9,1.5,13.6
			c10.6-35.5,21.3-73.8,27-101c3-14.3,15.4-24.7,30-24.8c0.1,0,0.2,0,0.3,0c16.2,0,30.6,4.7,44.1,15.8c9.8,8.1,13.4,21.4,9.5,33.5
			c-1.1,3.3-2.2,6.7-3.3,10.1c3,65.2-28.2,128.5-54.1,188.1C1091,690,1085,700,1077,710z"/>
		<path fill="#437BBF" d="M1014,753.6c0.1-0.3,0.2-0.6,0.3-0.9C1014.2,753,1014.1,753.3,1014,753.6z"/>
		<path fill="#437BBF" d="M1017.2,744.3c0.1-0.2,0.1-0.4,0.2-0.6C1017.3,743.9,1017.2,744.1,1017.2,744.3z"/>
		<path fill="#437BBF" d="M1015.1,750.3c0.1-0.2,0.1-0.4,0.2-0.6C1015.3,749.9,1015.2,750.1,1015.1,750.3z"/>
		<path fill="#437BBF" d="M1013,756.5c0.1-0.3,0.2-0.6,0.3-0.9C1013.2,755.9,1013.1,756.2,1013,756.5z"/>
		<path fill="#437BBF" d="M1019.1,738.1c0-0.2,0.1-0.3,0.1-0.5C1019.2,737.8,1019.2,737.9,1019.1,738.1z"/>
		<path fill="#437BBF" d="M1016.1,747.5c0.1-0.2,0.2-0.5,0.3-0.7C1016.3,747,1016.2,747.2,1016.1,747.5z"/>
		<path fill="#437BBF" d="M1020.1,734.9c0-0.1,0.1-0.3,0.1-0.4C1020.2,734.7,1020.2,734.8,1020.1,734.9z"/>
		<path fill="#3F75B6" d="M1077,710c8-10,14-20,19-31c25.9-59.6,57.1-123,54.1-188.1c-31.3,96.8-74.4,237.9-119.1,237.9
			c-2.8,0-5.6-1-8.2-2.8c-0.2,0.8-0.4,1.6-0.7,2.3c0,0.1-0.1,0.2-0.1,0.3c-0.3,1-0.6,1.9-0.8,2.9c0,0.1-0.1,0.2-0.1,0.4
			c-0.3,0.9-0.5,1.9-0.8,2.8c0,0.1-0.1,0.3-0.1,0.4c-0.3,0.9-0.5,1.8-0.8,2.7c0,0.2-0.1,0.3-0.1,0.5c-0.3,0.9-0.5,1.8-0.8,2.6
			c-0.1,0.2-0.1,0.3-0.2,0.5c-0.3,0.9-0.5,1.7-0.8,2.6c-0.1,0.2-0.1,0.4-0.2,0.6c-0.3,0.8-0.5,1.6-0.8,2.4c-0.1,0.2-0.2,0.5-0.3,0.7
			c-0.3,0.7-0.5,1.5-0.8,2.2c-0.1,0.2-0.1,0.4-0.2,0.6c-0.3,0.8-0.5,1.5-0.8,2.3c-0.1,0.3-0.2,0.6-0.3,0.9c-0.2,0.7-0.5,1.3-0.7,2
			c-0.1,0.3-0.2,0.6-0.3,0.9c-0.2,0.7-0.5,1.3-0.7,1.9c-0.1,0.3-0.2,0.6-0.3,0.9c-0.2,0.6-0.5,1.3-0.7,1.9c-0.1,0.4-0.3,0.7-0.4,1.1
			c-0.2,0.6-0.4,1.1-0.7,1.7c-0.2,0.4-0.3,0.8-0.5,1.2c-0.2,0.5-0.4,1-0.6,1.5c-0.2,0.4-0.3,0.8-0.5,1.2c-0.2,0.5-0.4,1-0.6,1.4
			c-0.2,0.4-0.4,0.8-0.5,1.3c-0.2,0.5-0.4,0.9-0.6,1.4c-0.2,0.4-0.4,0.8-0.5,1.2c-0.2,0.4-0.4,0.9-0.6,1.3c-0.2,0.4-0.4,0.8-0.5,1.2
			c-0.2,0.4-0.4,0.9-0.6,1.3c-0.2,0.5-0.5,1-0.7,1.5c-0.1,0.3-0.3,0.6-0.4,1c-0.2,0.4-0.4,0.8-0.6,1.2c-0.6,1.2-1.2,2.4-1.7,3.5
			c1.3,0.2,2.7,0.5,4,0.7c0,0,0,0,0,0c71.4,12.1,162.7,16,216.8-14.8c0-0.1,0-0.2,0.1-0.3c-63.7,17.3-129.7,24.6-193,4.1
			c-1-1-3-3-4-5C1025,746,1073,714,1077,710z"/>
		<path fill="#44587F" d="M1099.8,431.5c-0.1,0-0.2,0-0.3,0c-14.6,0.1-27,10.5-30,24.8c-5.7,27.3-16.4,65.5-27,101
			c-3.8,12.6-7.5,24.8-11,36.1c-12.9-41.1-33.4-79.4-56.8-115.4c-5.1,3.6-9.8,7.6-14.2,12c-8.6,8.5-16.2,18.2-24.3,27.4
			c-2.1,2.4-4.2,4.8-6.5,7.1c-0.4,0.4-0.8,0.7-1.2,0.9c46.9,75.9,67.1,181.9,94,200.4c2.7,1.8,5.4,2.8,8.2,2.8
			c44.7,0,87.7-141.1,119.1-237.9c1.1-3.4,2.2-6.8,3.3-10.1c3.9-12,0.3-25.4-9.5-33.5C1130.5,436.2,1116,431.5,1099.8,431.5z"/>
		<circle fill="#5D6A7B" cx="910.8" cy="235.3" r="7.4"/>
		<path fill="#E3C082" d="M1000.1,241c0.2-0.2,0.3-0.5,0.1-0.7c-0.2-0.2-0.5-0.3-0.7-0.1c-1.6,1.1-2.6,3-2.6,4.9
			c0,3.9,3.6,5.2,6.6,5.2c6.9,0,12.2-8,13.8-13.7c0.1-0.3-0.1-0.5-0.3-0.6c-0.3-0.1-0.5,0.1-0.6,0.3c-1.5,5.4-6.4,12.9-12.8,12.9
			c-2.7,0-5.6-1.1-5.6-4.2C997.9,243.5,998.8,241.9,1000.1,241z"/>
		<path fill="#E3C082" d="M1008.7,225.7c-0.3,0-0.5,0.3-0.4,0.6c0,0.2,0.3,0.4,0.5,0.4c0,0,0.1,0,0.1,0c2.9-0.5,4.3-4.9,4.3-7.7
			c0-4.4-2.1-11.5-7.7-11.5c-4.4,0-6.4,4.1-6.4,7.8c0,1.5,0.3,2.9,0.9,4.1c0.1,0.2,0.4,0.4,0.7,0.2c0.2-0.1,0.4-0.4,0.2-0.7
			c-0.5-1.1-0.8-2.3-0.8-3.7c0-3.3,1.7-6.8,5.4-6.8c4.6,0,6.7,6.1,6.7,10.5C1012.1,221.9,1010.7,225.4,1008.7,225.7z"/>
		<path fill="#E3C082" d="M1008.4,223.3c0.3,0,0.5-0.3,0.5-0.5c0-0.3-0.2-0.5-0.5-0.5c-3.8,0.2-6.1,4.1-6.1,7.8c0,3.7,2.7,5,4.5,5
			c0.1,0,0.2,0,0.3,0c0.3,0,0.5-0.3,0.4-0.6c0-0.3-0.3-0.5-0.6-0.4c-0.1,0-0.1,0-0.2,0c-1,0-3.5-0.7-3.5-4
			C1003.2,226.9,1005.1,223.5,1008.4,223.3z"/>
		<path fill="#5D6A7B" d="M898.7,221.4c0,0.4,0,0.9,0.1,1.3c4-4.7,10.2-7.9,16.2-7.9c3.9,0,8.8,1.7,11,4.9c0-0.3,0.1-0.7,0.1-1
			c0-7.1-9.3-9.5-12.6-9.5C908,209.2,898.7,213.9,898.7,221.4z"/>
		<circle fill="#FAB585" cx="945.7" cy="256.1" r="16"/>
		<path fill="#44587F" d="M1049.9,153.5c-7.5-21.7-23.1-44.4-45.1-50.4c3.8,5.4,7.3,11.3,8.9,17.6c-6.8-4.1-13.9-7.3-21.5-9.4
			c2.8,5.4,4.6,11.2,5.3,17.2c-7.2-4-15-6.7-22.9-8.9c2.1,5,3.5,10.1,3.5,15.5c-9.2-3.8-18.9-6.8-28.9-6.9
			c19.5,13.7,39.5,28.9,50.6,50c0-8.3-0.9-16.7-3.2-24.7c9.1,5.7,17.7,12.4,24.5,20.7c-1.3-10-3.6-19.8-7.2-29.1
			c8.6,5,16.3,11.8,21.5,20.2c-1.3-10.4-3.7-20.9-8.7-30.2C1035.8,139.1,1043.5,145.8,1049.9,153.5z"/>
		<linearGradient id="SVGID_3_" gradientUnits="userSpaceOnUse" x1="949.2194" y1="140.5714" x2="1049.8572" y2="140.5714">
			<stop  offset="0" style="stop-color:#4AC6EF"/>
			<stop  offset="1" style="stop-color:#7386C2"/>
		</linearGradient>
		<path fill="url(#SVGID_3_)" d="M1049.9,153.5c-7.5-21.7-23.1-44.4-45.1-50.4c3.8,5.4,7.3,11.3,8.9,17.6
			c-6.8-4.1-13.9-7.3-21.5-9.4c2.8,5.4,4.6,11.2,5.3,17.2c-7.2-4-15-6.7-22.9-8.9c2.1,5,3.5,10.1,3.5,15.5
			c-9.2-3.8-18.9-6.8-28.9-6.9c19.5,13.7,39.5,28.9,50.6,50c0-8.3-0.9-16.7-3.2-24.7c9.1,5.7,17.7,12.4,24.5,20.7
			c-1.3-10-3.6-19.8-7.2-29.1c8.6,5,16.3,11.8,21.5,20.2c-1.3-10.4-3.7-20.9-8.7-30.2C1035.8,139.1,1043.5,145.8,1049.9,153.5z"/>
		<path fill="#44587F" d="M1127.4,54.7c3.2,4.4,6.1,9,8.1,14c-6.7-2-13.7-2.6-20.6-2.6c-0.6,0-1.3,0-1.9,0
			c6.4,5.9,10.9,13.7,12.8,22.1c-0.2,0-0.4,0-0.7,0c-0.3,0-16.3-4.9-27.4-5.9c2.6,3.3,4.8,6.9,5.7,11c-0.4,0-0.8,0-1.1,0
			c-4,0-8,0.6-11.9,1.5c18.5,4.3,35.6,17.1,43.1,34.3c0.2-2.5,0.3-5,0.3-7.6c0-3.6-0.3-7.3-0.8-10.9c6.7,5.2,13.2,11.3,16.7,18.6
			c-0.3-10.7-1.6-21.4-5.5-31.3c7.3,4.3,14.3,9.1,19.3,15.6c-1.5-10.7-4.1-21.3-9.3-30.7c5.9,2.3,11.6,5.2,16.3,9.1
			C1162.7,73.8,1147,58,1127.4,54.7z"/>
		<linearGradient id="SVGID_4_" gradientUnits="userSpaceOnUse" x1="1090.4281" y1="92.0046" x2="1170.615" y2="92.0046">
			<stop  offset="0" style="stop-color:#4AC6EF"/>
			<stop  offset="1" style="stop-color:#7386C2"/>
		</linearGradient>
		<path fill="url(#SVGID_4_)" d="M1127.4,54.7c3.2,4.4,6.1,9,8.1,14c-6.7-2-13.7-2.6-20.6-2.6c-0.6,0-1.3,0-1.9,0
			c6.4,5.9,10.9,13.7,12.8,22.1c-0.2,0-0.4,0-0.7,0c-0.3,0-16.3-4.9-27.4-5.9c2.6,3.3,4.8,6.9,5.7,11c-0.4,0-0.8,0-1.1,0
			c-4,0-8,0.6-11.9,1.5c18.5,4.3,35.6,17.1,43.1,34.3c0.2-2.5,0.3-5,0.3-7.6c0-3.6-0.3-7.3-0.8-10.9c6.7,5.2,13.2,11.3,16.7,18.6
			c-0.3-10.7-1.6-21.4-5.5-31.3c7.3,4.3,14.3,9.1,19.3,15.6c-1.5-10.7-4.1-21.3-9.3-30.7c5.9,2.3,11.6,5.2,16.3,9.1
			C1162.7,73.8,1147,58,1127.4,54.7z"/>
	</g>
	<g>
		<rect y="955.9" fill="#ACE0F5" width="119" height="24.1"/>
		<rect x="656.6" y="955.9" fill="#ACE0F5" width="103.9" height="24.1"/>
		<rect x="763.5" y="955.9" fill="#ACE0F5" width="103.9" height="24.1"/>
		<rect x="335.8" y="955.9" fill="#ACE0F5" width="103.9" height="24.1"/>
		<rect x="122" y="955.9" fill="#ACE0F5" width="103.9" height="24.1"/>
		<rect x="228.9" y="955.9" fill="#ACE0F5" width="103.9" height="24.1"/>
		<rect x="870.4" y="955.9" fill="#ACE0F5" width="16.1" height="24.1"/>
		<rect x="442.7" y="955.9" fill="#ACE0F5" width="103.9" height="24.1"/>
		<rect x="818.1" y="683.4" fill="#ACE0F5" width="68.4" height="51.5"/>
		<rect x="870.4" y="628.9" fill="#ACE0F5" width="16.1" height="51.5"/>
		<rect x="818.1" y="574.4" fill="#ACE0F5" width="68.4" height="51.5"/>
		<rect x="870.4" y="846.9" fill="#ACE0F5" width="16.1" height="51.5"/>
		<rect x="818.1" y="901.4" fill="#ACE0F5" width="68.4" height="51.5"/>
		<rect x="870.4" y="737.9" fill="#ACE0F5" width="16.1" height="51.5"/>
		<rect x="818.1" y="792.4" fill="#ACE0F5" width="68.4" height="51.5"/>
		<rect x="870.4" y="519.9" fill="#ACE0F5" width="16.1" height="51.5"/>
		<rect x="283.5" y="504.2" fill="#ACE0F5" width="103.9" height="12.7"/>
		<rect x="176.6" y="504.2" fill="#ACE0F5" width="103.9" height="12.7"/>
		<rect x="390.4" y="504.2" fill="#ACE0F5" width="103.9" height="12.7"/>
		<rect x="69.7" y="504.2" fill="#ACE0F5" width="103.9" height="12.7"/>
		<rect x="711.2" y="504.2" fill="#ACE0F5" width="103.9" height="12.7"/>
		<rect x="497.4" y="504.2" fill="#ACE0F5" width="103.9" height="12.7"/>
		<rect y="504.2" fill="#ACE0F5" width="66.7" height="12.7"/>
		<rect x="604.3" y="504.2" fill="#ACE0F5" width="103.9" height="12.7"/>
		<rect y="683.4" fill="#ACE0F5" width="66.7" height="51.5"/>
		<rect y="792.4" fill="#ACE0F5" width="66.7" height="51.5"/>
		<rect y="846.9" fill="#ACE0F5" width="119" height="51.5"/>
		<rect y="737.9" fill="#ACE0F5" width="119" height="51.5"/>
		<rect y="574.4" fill="#ACE0F5" width="66.7" height="51.5"/>
		<rect y="901.4" fill="#ACE0F5" width="66.7" height="51.5"/>
		<rect y="519.9" fill="#ACE0F5" width="119" height="51.5"/>
		<rect y="628.9" fill="#ACE0F5" width="119" height="51.5"/>
		<rect x="549.7" y="955.9" fill="#ACE0F5" width="103.9" height="24.1"/>
		<rect x="604.3" y="792.4" fill="#ACE0F5" width="103.9" height="51.5"/>
		<rect x="604.3" y="901.4" fill="#ACE0F5" width="103.9" height="51.5"/>
		<rect x="604.3" y="683.4" fill="#ACE0F5" width="103.9" height="51.5"/>
		<rect x="69.7" y="574.4" fill="#ACE0F5" width="103.9" height="51.5"/>
		<rect x="604.3" y="574.4" fill="#ACE0F5" width="103.9" height="51.5"/>
		<rect x="497.4" y="901.4" fill="#ACE0F5" width="103.9" height="51.5"/>
		<rect x="122" y="519.9" fill="#ACE0F5" width="103.9" height="51.5"/>
		<rect x="442.7" y="519.9" fill="#ACE0F5" width="103.9" height="51.5"/>
		<rect x="228.9" y="519.9" fill="#ACE0F5" width="103.9" height="51.5"/>
		<rect x="390.4" y="901.4" fill="#ACE0F5" width="103.9" height="51.5"/>
		<rect x="228.9" y="628.9" fill="#ACE0F5" width="103.9" height="51.5"/>
		<rect x="335.8" y="519.9" fill="#ACE0F5" width="103.9" height="51.5"/>
		<rect x="656.6" y="519.9" fill="#ACE0F5" width="103.9" height="51.5"/>
		<rect x="122" y="628.9" fill="#ACE0F5" width="103.9" height="51.5"/>
		<rect x="228.9" y="846.9" fill="#ACE0F5" width="103.9" height="51.5"/>
		<rect x="283.5" y="901.4" fill="#ACE0F5" width="103.9" height="51.5"/>
		<rect x="711.2" y="683.4" fill="#ACE0F5" width="103.9" height="51.5"/>
		<rect x="711.2" y="792.4" fill="#ACE0F5" width="103.9" height="51.5"/>
		<rect x="763.5" y="628.9" fill="#ACE0F5" width="103.9" height="51.5"/>
		<rect x="763.5" y="737.9" fill="#ACE0F5" width="103.9" height="51.5"/>
		<rect x="818.1" y="504.2" fill="#ACE0F5" width="68.4" height="12.7"/>
		<rect x="763.5" y="519.9" fill="#ACE0F5" width="103.9" height="51.5"/>
		<rect x="711.2" y="574.4" fill="#ACE0F5" width="103.9" height="51.5"/>
		<rect x="122" y="737.9" fill="#ACE0F5" width="103.9" height="51.5"/>
		<rect x="69.7" y="792.4" fill="#ACE0F5" width="103.9" height="51.5"/>
		<rect x="763.5" y="846.9" fill="#ACE0F5" width="103.9" height="51.5"/>
		<rect x="122" y="846.9" fill="#ACE0F5" width="103.9" height="51.5"/>
		<rect x="69.7" y="683.4" fill="#ACE0F5" width="103.9" height="51.5"/>
		<rect x="69.7" y="901.4" fill="#ACE0F5" width="103.9" height="51.5"/>
		<rect x="711.2" y="901.4" fill="#ACE0F5" width="103.9" height="51.5"/>
		<rect x="228.9" y="737.9" fill="#ACE0F5" width="103.9" height="51.5"/>
		<rect x="283.5" y="683.4" fill="#ACE0F5" width="103.9" height="51.5"/>
		<rect x="390.4" y="574.4" fill="#ACE0F5" width="103.9" height="51.5"/>
		<rect x="335.8" y="737.9" fill="#ACE0F5" width="103.9" height="51.5"/>
		<rect x="176.6" y="683.4" fill="#ACE0F5" width="103.9" height="51.5"/>
		<rect x="390.4" y="792.4" fill="#ACE0F5" width="103.9" height="51.5"/>
		<rect x="176.6" y="574.4" fill="#ACE0F5" width="103.9" height="51.5"/>
		<rect x="176.6" y="901.4" fill="#ACE0F5" width="103.9" height="51.5"/>
		<rect x="283.5" y="574.4" fill="#ACE0F5" width="103.9" height="51.5"/>
		<rect x="442.7" y="737.9" fill="#ACE0F5" width="103.9" height="51.5"/>
		<rect x="656.6" y="846.9" fill="#ACE0F5" width="103.9" height="51.5"/>
		<rect x="442.7" y="628.9" fill="#ACE0F5" width="103.9" height="51.5"/>
		<rect x="390.4" y="683.4" fill="#ACE0F5" width="103.9" height="51.5"/>
		<rect x="656.6" y="628.9" fill="#ACE0F5" width="103.9" height="51.5"/>
		<rect x="656.6" y="737.9" fill="#ACE0F5" width="103.9" height="51.5"/>
		<rect x="176.6" y="792.4" fill="#ACE0F5" width="103.9" height="51.5"/>
		<rect x="549.7" y="737.9" fill="#ACE0F5" width="103.9" height="51.5"/>
		<rect x="283.5" y="792.4" fill="#ACE0F5" width="103.9" height="51.5"/>
		<rect x="335.8" y="628.9" fill="#ACE0F5" width="103.9" height="51.5"/>
		<rect x="497.4" y="792.4" fill="#ACE0F5" width="103.9" height="51.5"/>
		<rect x="497.4" y="683.4" fill="#ACE0F5" width="103.9" height="51.5"/>
		<rect x="549.7" y="519.9" fill="#ACE0F5" width="103.9" height="51.5"/>
		<rect x="549.7" y="628.9" fill="#ACE0F5" width="103.9" height="51.5"/>
		<rect x="335.8" y="846.9" fill="#ACE0F5" width="103.9" height="51.5"/>
		<rect x="549.7" y="846.9" fill="#ACE0F5" width="103.9" height="51.5"/>
		<rect x="442.7" y="846.9" fill="#ACE0F5" width="103.9" height="51.5"/>
		<rect x="497.4" y="574.4" fill="#ACE0F5" width="103.9" height="51.5"/>
		<rect x="69.7" y="490" fill="#98DAF4" width="103.9" height="14.2"/>
		<rect y="490" fill="#98DAF4" width="66.7" height="14.2"/>
		<rect x="283.5" y="490" fill="#98DAF4" width="103.9" height="14.2"/>
		<rect x="176.6" y="490" fill="#98DAF4" width="103.9" height="14.2"/>
		<rect x="497.4" y="490" fill="#98DAF4" width="103.9" height="14.2"/>
		<rect x="390.4" y="490" fill="#98DAF4" width="103.9" height="14.2"/>
		<rect x="818.1" y="490" fill="#98DAF4" width="68.4" height="14.2"/>
		<rect x="711.2" y="490" fill="#98DAF4" width="103.9" height="14.2"/>
		<rect x="604.3" y="490" fill="#98DAF4" width="103.9" height="14.2"/>
		<path fill="#73D0F2" d="M899.7,439.6h-13.2H0V490h66.7h3h103.9h3h103.9h3h103.9h3h103.9h3h103.9h3h103.9h3h103.9h3h68.4h13.2
			c6.4,0,11.6-5.2,11.6-11.6v-27.2C911.2,444.8,906.1,439.6,899.7,439.6z"/>
		<path fill="#17C1E3" d="M886.5,519.9L886.5,519.9l0-3h0h-68.4v-12.7V490h-3v14.2v12.7H711.2v-12.7V490h-3v14.2v12.7H604.3v-12.7
			V490h-3v14.2v12.7H497.4v-12.7V490h-3v14.2v12.7H390.4v-12.7V490h-3v14.2v12.7H283.5v-12.7V490h-3v14.2v12.7H176.6v-12.7V490h-3
			v14.2v12.7H69.7v-12.7V490h-3v14.2v12.7H0v3h119v51.5H0v3h66.7v51.5H0v3h119v51.5H0v3h66.7v51.5H0v3h119v51.5H0v3h66.7v51.5H0v3
			h119v51.5H0v3h66.7v51.5H0v3h119V980h3v-24.1h103.9V980h3v-24.1h103.9V980h3v-24.1h103.9V980h3v-24.1h103.9V980h3v-24.1h103.9V980
			h3v-24.1h103.9V980h3v-24.1h103.9V980h3v-24.1h16.1h0v-3h0h-68.4v-51.5h68.4h0v-3h0h-16.1v-51.5h16.1h0v-3h0h-68.4v-51.5h68.4h0
			v-3h0h-16.1v-51.5h16.1h0v-3h0h-68.4v-51.5h68.4h0v-3h0h-16.1v-51.5h16.1h0v-3h0h-68.4v-51.5h68.4h0v-3h0h-16.1v-51.5H886.5z
			 M656.6,519.9h103.9v51.5H656.6V519.9z M176.6,843.9v-51.5h103.9v51.5H176.6z M225.9,846.9v51.5H122v-51.5H225.9z M653.6,628.9
			v51.5H549.7v-51.5H653.6z M604.3,625.9v-51.5h103.9v51.5H604.3z M283.5,734.9v-51.5h103.9v51.5H283.5z M332.8,737.9v51.5H228.9
			v-51.5H332.8z M335.8,737.9h103.9v51.5H335.8V737.9z M390.4,734.9v-51.5h103.9v51.5H390.4z M442.7,737.9h103.9v51.5H442.7V737.9z
			 M497.4,734.9v-51.5h103.9v51.5H497.4z M549.7,737.9h103.9v51.5H549.7V737.9z M604.3,734.9v-51.5h103.9v51.5H604.3z M601.3,625.9
			H497.4v-51.5h103.9V625.9z M546.7,628.9v51.5H442.7v-51.5H546.7z M494.4,625.9H390.4v-51.5h103.9V625.9z M439.7,628.9v51.5H335.8
			v-51.5H439.7z M387.4,625.9H283.5v-51.5h103.9V625.9z M332.8,628.9v51.5H228.9v-51.5H332.8z M280.5,625.9H176.6v-51.5h103.9V625.9
			z M225.9,628.9v51.5H122v-51.5H225.9z M176.6,683.4h103.9v51.5H176.6V683.4z M225.9,737.9v51.5H122v-51.5H225.9z M228.9,846.9
			h103.9v51.5H228.9V846.9z M283.5,843.9v-51.5h103.9v51.5H283.5z M335.8,846.9h103.9v51.5H335.8V846.9z M390.4,843.9v-51.5h103.9
			v51.5H390.4z M442.7,846.9h103.9v51.5H442.7V846.9z M497.4,843.9v-51.5h103.9v51.5H497.4z M549.7,846.9h103.9v51.5H549.7V846.9z
			 M604.3,843.9v-51.5h103.9v51.5H604.3z M656.6,846.9h103.9v51.5H656.6V846.9z M711.2,843.9v-51.5h103.9v51.5H711.2z M760.5,789.4
			H656.6v-51.5h103.9V789.4z M711.2,734.9v-51.5h103.9v51.5H711.2z M760.5,680.4H656.6v-51.5h103.9V680.4z M711.2,625.9v-51.5h103.9
			v51.5H711.2z M549.7,519.9h103.9v51.5H549.7V519.9z M442.7,519.9h103.9v51.5H442.7V519.9z M335.8,519.9h103.9v51.5H335.8V519.9z
			 M228.9,519.9h103.9v51.5H228.9V519.9z M122,519.9h103.9v51.5H122V519.9z M69.7,625.9v-51.5h103.9v51.5H69.7z M69.7,734.9v-51.5
			h103.9v51.5H69.7z M69.7,843.9v-51.5h103.9v51.5H69.7z M173.6,952.9H69.7v-51.5h103.9V952.9z M280.5,952.9H176.6v-51.5h103.9
			V952.9z M387.4,952.9H283.5v-51.5h103.9V952.9z M494.4,952.9H390.4v-51.5h103.9V952.9z M601.3,952.9H497.4v-51.5h103.9V952.9z
			 M708.2,952.9H604.3v-51.5h103.9V952.9z M815.1,952.9H711.2v-51.5h103.9V952.9z M867.4,846.9v51.5H763.5v-51.5H867.4z
			 M867.4,737.9v51.5H763.5v-51.5H867.4z M867.4,628.9v51.5H763.5v-51.5H867.4z M867.4,571.4H763.5v-51.5h103.9V571.4z"/>
	</g>
</g>
</svg>
