<svg width="186" height="163" viewBox="0 0 186 163" fill="none" xmlns="http://www.w3.org/2000/svg">
<path fill-rule="evenodd" clip-rule="evenodd" d="M97.2015 2.5C95.277 -0.833342 90.4657 -0.833329 88.5412 2.50001L0.707943 154.632C-2.01764 159.353 3.70489 164.408 8.05332 161.121L30.1542 144.413C67.2606 116.361 118.482 116.361 155.588 144.413L177.689 161.121C182.038 164.408 187.76 159.353 185.035 154.632L97.2015 2.5ZM97.207 41.5484C95.285 38.2022 90.4577 38.2022 88.5357 41.5484L57.1681 96.1595C54.0834 101.53 61.589 106.609 65.4277 101.749L92.8713 67L120.315 101.749C124.154 106.609 131.659 101.53 128.575 96.1595L97.207 41.5484Z" fill="#0175F0"/>
</svg>
