<?xml version="1.0" encoding="utf-8"?>
<!-- Generator: Adobe Illustrator 16.0.0, SVG Export Plug-In . SVG Version: 6.00 Build 0)  -->
<!DOCTYPE svg PUBLIC "-//W3C//DTD SVG 1.1//EN" "http://www.w3.org/Graphics/SVG/1.1/DTD/svg11.dtd">
<svg version="1.1" id="Layer_2" xmlns="http://www.w3.org/2000/svg" xmlns:xlink="http://www.w3.org/1999/xlink" x="0px" y="0px"
	 width="2800px" height="1960px" viewBox="0 0 2800 1960" enable-background="new 0 0 2800 1960" xml:space="preserve">
<g id="Airport">
</g>
<g>
	<rect fill="#A35FA0" width="2800" height="1960"/>
	<g>
		<path fill="#FCE5D9" d="M1881.8,805.9c-1.8-5.6-4.2-11.2-7.3-16.5c-6.3,11.6-14.1,34.2-1.7,64.1
			C1886,842.5,1887.6,824,1881.8,805.9z"/>
		<g>
			<path fill="#FCE5D9" d="M1373.7,748l-28.8-65.4c-8.8,11.3-6.4,30.9,4.5,52.1c3.5,6.8,6.6,14.8,9.2,23.7
				C1370.3,755.4,1373.7,748,1373.7,748z"/>
			<path fill="#F9B48B" d="M1489.9,801.7l-63.9-76.6c0,0-42-57.3-67-51.1c-6.3,1.5-10.9,4.5-14.1,8.6l28.8,65.4
				c0,0-3.5,7.4-15.1,10.4c8.4,28.6,11.9,65.5,8.9,95.1c-8,79.5-49.2,102.9-64,316.5c-4.3,62.3-23.3,85.1-29.6,217l251.1,8.5v-68.1
				c0,0,24.7-9.6,32.6-51.1S1489.9,801.7,1489.9,801.7z"/>
			<rect x="1242.4" y="1375.8" fill="#E0E0E0" width="315.2" height="99.7"/>
			<rect x="1218.8" y="1445.5" fill="#3E4C59" width="362.4" height="337.7"/>
			<circle fill="#2B373F" cx="1531.9" cy="1543.1" r="22.5"/>
			<circle fill="#2B373F" cx="1531.9" cy="1636.9" r="22.5"/>
			<path fill="#3E4C59" d="M1824.9,1291.4c0,5.9-4.8,10.6-10.6,10.6h-377.6c-5.9,0-10.6-4.8-10.6-10.6V610.6
				c0-5.9,4.8-10.6,10.6-10.6h377.6c5.9,0,10.6,4.8,10.6,10.6V1291.4z"/>
			<rect x="1443.8" y="642.5" fill="#30ACE0" width="363.4" height="581.1"/>
			<circle fill="#2B373F" cx="1625.5" cy="1261.5" r="21.1"/>
			<circle fill="#2B373F" cx="1625.5" cy="620.1" r="8.7"/>
			<path fill="#F9B48B" d="M1835.3,1066.5c0,0,16.7,21.7,15.9,38.7c-0.8,16.9-22,35.5-45,43.9s-36,0.5-40.2-12.2
				c-4.2-12.7-4.2-29.6,18.3-40.5C1806.7,1085.5,1835.3,1066.5,1835.3,1066.5z"/>
			<path fill="#FCE5D9" d="M1798.4,1144.4c-4,2.1-8.7,0.9-10.6-2.6l-7.2-13.7c-1.9-3.6-0.2-8.2,3.8-10.3l13.7-7.2
				c4-2.1,8.7-0.9,10.6,2.6l7.2,13.7c1.9,3.6,0.2,8.2-3.8,10.3L1798.4,1144.4z"/>
			<path fill="#F9B48B" d="M1874.5,789.4c-10.2-17.5-27.4-30.5-49.6-18.9c0,0-6.2,22.7-6.2,45.4c0,22.7,8.2,52.7,36.8,45.9
				c7.2-1.7,12.9-4.6,17.4-8.3C1860.5,823.7,1868.2,801,1874.5,789.4z"/>
			<path fill="#F9B48B" d="M1840.1,977.6c0,0,24.3,31.6,23.2,56.3c-1.2,24.7-32,51.7-65.6,64.1s-52.5,0.8-58.6-17.7
				c-6.2-18.5-6.2-43.2,26.6-59C1798.4,1005.3,1840.1,977.6,1840.1,977.6z"/>
			<path fill="#F9B48B" d="M1824.9,867.6v26.2c0,0-18.5,3.7-38.3,28.4c-19.8,24.6-35.3,61.6-13.4,81.4c22,19.8,37.5,14.5,63.2-6.4
				c25.7-20.9,55-47.3,39.2-88.7C1870,893.7,1846.1,867.6,1824.9,867.6z"/>
			<path fill="#FCE5D9" d="M1820.7,999.5c-5.2,4-12.4,3.4-15.9-1.3l-13.6-18c-3.6-4.7-2.2-11.7,3-15.7l18-13.6
				c5.2-4,12.4-3.4,15.9,1.3l13.6,18c3.6,4.7,2.2,11.7-3,15.7L1820.7,999.5z"/>
			<path fill="#FCE5D9" d="M1786.2,1091.1c-5.8,3.1-12.7,1.4-15.5-3.8l-10.6-19.9c-2.8-5.2-0.3-11.9,5.5-15l19.9-10.6
				c5.8-3.1,12.7-1.4,15.5,3.8l10.5,19.9c2.8,5.2,0.3,11.9-5.5,15L1786.2,1091.1z"/>
			<g>
				<path fill="#C8D9EB" d="M1574.9,947.6l16.8,55.4l10.1,6l11.6-17.8l46.1-47.3l55.6-85.1c0,0-6.5-2-14.8,2
					c-8.3,4-89.6,46.3-89.6,46.3l-34.5,26L1574.9,947.6z"/>
				<polygon fill="#A9C9DE" points="1601.8,959.9 1601.8,1009 1642.4,972.7 				"/>
				<path fill="#EFF8FD" d="M1601.8,959.9c0,0,64.8,49.5,71.4,54c6.5,4.5,17.6,10.3,23.1-14.3c5.5-24.6,26.9-120.1,28.9-131.2
					c2-11.1,3-26.6-20.1-17.3c-23.1,9.3-145.2,54.5-162.7,61c-20.1,7.4-22.8,19.3-8.5,24.1c21.2,7.1,41,11.4,41,11.4l114.6-71.4
					L1601.8,959.9z"/>
			</g>
			<g>
				<path fill="#3E4C59" d="M1897.8,1786H902.2c-1.6,0-2.8-1.3-2.8-2.8s1.3-2.8,2.8-2.8h995.6c1.6,0,2.8,1.3,2.8,2.8
					S1899.4,1786,1897.8,1786z"/>
			</g>
		</g>
		<g>
			<g>
				<path fill="#A3DDEF" d="M1021.5,1784.6c-2.3,0-4.3-1.9-4.3-4.3s1.9-4.3,4.3-4.3c9,0,18.4-0.2,28.2-0.4c2.3-0.1,4.3,1.8,4.4,4.1
					c0.1,2.3-1.8,4.3-4.1,4.4C1040.1,1784.5,1030.5,1784.6,1021.5,1784.6z"/>
			</g>
			<g>
				<path fill="#A3DDEF" d="M1104.8,1781.2c-2.2,0-4.1-1.7-4.2-3.9c-0.2-2.3,1.6-4.4,3.9-4.6c17.8-1.4,36.2-3.1,54.7-5.2
					c2.3-0.3,4.4,1.4,4.7,3.7c0.3,2.3-1.4,4.4-3.7,4.7c-18.6,2.1-37.1,3.9-55,5.2C1105,1781.2,1104.9,1781.2,1104.8,1781.2z
					 M1214.3,1768.8c-2.1,0-3.9-1.5-4.2-3.6c-0.3-2.3,1.3-4.5,3.6-4.8c18.2-2.7,36.4-5.8,54.2-9.1c2.3-0.4,4.5,1.1,5,3.4
					c0.4,2.3-1.1,4.5-3.4,5c-17.9,3.3-36.2,6.4-54.5,9.2C1214.7,1768.8,1214.5,1768.8,1214.3,1768.8z M1322.6,1748.5
					c-1.9,0-3.7-1.3-4.1-3.3c-0.5-2.3,0.9-4.6,3.2-5.1c18.2-4.2,36.1-8.6,53.3-13.4c2.3-0.6,4.6,0.7,5.2,3c0.6,2.3-0.7,4.6-3,5.2
					c-17.2,4.7-35.3,9.3-53.6,13.5C1323.2,1748.5,1322.9,1748.5,1322.6,1748.5z M1428.7,1719.1c-1.8,0-3.4-1.1-4-2.9
					c-0.7-2.2,0.5-4.6,2.7-5.4c18-6,35.3-12.4,51.4-19c2.2-0.9,4.7,0.1,5.5,2.3c0.9,2.2-0.1,4.7-2.3,5.5
					c-16.3,6.7-33.8,13.2-51.9,19.2C1429.6,1719,1429.2,1719.1,1428.7,1719.1z M1530.4,1676.9c-1.5,0-3-0.8-3.8-2.3
					c-1.1-2.1-0.3-4.7,1.8-5.7c17.1-8.9,32.8-18.3,46.7-28c1.9-1.3,4.6-0.9,5.9,1.1c1.3,1.9,0.9,4.6-1.1,5.9
					c-14.2,9.9-30.2,19.5-47.7,28.6C1531.7,1676.7,1531,1676.9,1530.4,1676.9z M1619.7,1613.3c-1.1,0-2.1-0.4-3-1.2
					c-1.7-1.6-1.7-4.3-0.1-6c13.3-13.8,23.9-28.3,31.4-43.2c1.1-2.1,3.6-2.9,5.7-1.9c2.1,1.1,2.9,3.6,1.9,5.7
					c-7.9,15.7-19,30.9-32.9,45.3C1621.9,1612.9,1620.8,1613.3,1619.7,1613.3z M1666.5,1516.6c-0.1,0-0.2,0-0.3,0
					c-2.3-0.2-4.1-2.2-3.9-4.5c0.2-3,0.3-6.1,0.3-9.2c0-14.1-2.2-28.8-6.6-43.6c-0.7-2.3,0.6-4.6,2.9-5.3c2.3-0.7,4.6,0.6,5.3,2.9
					c4.6,15.6,7,31.1,7,46c0,3.3-0.1,6.6-0.3,9.8C1670.5,1514.9,1668.7,1516.6,1666.5,1516.6z M1637.7,1412.1
					c-1.5,0-2.9-0.8-3.7-2.1c-8.4-14.5-18.9-29.5-31.1-44.6c-1.5-1.8-1.2-4.5,0.6-6c1.8-1.5,4.5-1.2,6,0.6
					c12.5,15.4,23.2,30.8,31.8,45.6c1.2,2,0.5,4.6-1.5,5.8C1639.2,1411.9,1638.4,1412.1,1637.7,1412.1z"/>
			</g>
			<g>
				<path fill="#A3DDEF" d="M1569.4,1326c-1.1,0-2.2-0.4-3-1.3c-6.4-6.5-13.2-13.1-20.2-19.6c-1.7-1.6-1.8-4.3-0.2-6
					c1.6-1.7,4.3-1.8,6-0.2c7.1,6.6,14,13.3,20.5,19.8c1.7,1.7,1.6,4.4,0,6C1571.6,1325.6,1570.5,1326,1569.4,1326z"/>
			</g>
		</g>
		<g>
			<path fill="#A3DDEF" d="M1309.6,1107.3c-1,0-2.1-0.4-2.9-1.2c-0.7-0.6-16.8-15.9-38.1-43c-1.5-1.8-1.1-4.5,0.7-6s4.5-1.1,6,0.7
				c20.9,26.6,37.1,41.9,37.2,42.1c1.7,1.6,1.8,4.3,0.2,6C1311.9,1106.9,1310.8,1107.3,1309.6,1107.3z M1239.3,1018.4
				c-1.4,0-2.8-0.7-3.6-2c-10.3-16.4-19.6-33.3-27.6-50.1c-1-2.1-0.1-4.7,2-5.7c2.1-1,4.7-0.1,5.7,2c7.9,16.5,17,33.1,27.1,49.2
				c1.2,2,0.6,4.6-1.3,5.9C1240.9,1018.2,1240.1,1018.4,1239.3,1018.4z M1191,916.1c-1.8,0-3.5-1.1-4-2.9
				c-6-18.5-10.5-37.3-13.5-55.7c-0.4-2.3,1.2-4.5,3.5-4.9c2.3-0.4,4.5,1.2,4.9,3.5c2.9,18,7.3,36.3,13.2,54.4
				c0.7,2.2-0.5,4.6-2.7,5.4C1191.9,916,1191.4,916.1,1191,916.1z M1173.3,804.6C1173.3,804.6,1173.3,804.6,1173.3,804.6
				c-2.4,0-4.3-1.9-4.3-4.3c0.2-19.1,2.1-38.3,5.6-57.1c0.4-2.3,2.7-3.8,5-3.4c2.3,0.4,3.8,2.7,3.4,5c-3.5,18.2-5.3,36.9-5.5,55.6
				C1177.6,802.7,1175.7,804.6,1173.3,804.6z M1194.2,693.8c-0.5,0-1-0.1-1.5-0.3c-2.2-0.8-3.3-3.3-2.5-5.5
				c6.5-17.4,14.7-34.9,24.3-51.8c1.2-2,3.7-2.8,5.8-1.6c2,1.2,2.8,3.7,1.6,5.8c-9.4,16.6-17.4,33.6-23.8,50.6
				C1197.6,692.7,1195.9,693.8,1194.2,693.8z M1249.4,595.3c-0.9,0-1.8-0.3-2.6-0.9c-1.9-1.4-2.2-4.1-0.8-6
				c11.1-14.7,23.5-29.3,36.9-43.5c1.6-1.7,4.3-1.8,6-0.2c1.7,1.6,1.8,4.3,0.2,6c-13.2,14-25.4,28.4-36.3,42.8
				C1251.9,594.7,1250.7,595.3,1249.4,595.3z M1326.8,512.8c-1.2,0-2.3-0.5-3.2-1.4c-1.6-1.8-1.4-4.4,0.4-6
				c13.7-12.1,28.6-24.2,44.1-36c1.9-1.4,4.5-1.1,6,0.8c1.4,1.9,1.1,4.5-0.8,6c-15.4,11.6-30.1,23.6-43.6,35.6
				C1328.8,512.5,1327.8,512.8,1326.8,512.8z M1416.9,444.2c-1.4,0-2.7-0.7-3.5-1.9c-1.3-2-0.8-4.6,1.2-5.9
				c15.3-10.2,31.5-20.3,48.2-30.2c2-1.2,4.6-0.5,5.8,1.5s0.5,4.6-1.5,5.8c-16.6,9.8-32.7,19.9-47.8,29.9
				C1418.5,444,1417.7,444.2,1416.9,444.2z M1514.4,386.5c-1.5,0-3-0.8-3.8-2.3c-1.1-2.1-0.3-4.6,1.8-5.8
				c16.2-8.6,33.3-17.3,50.7-25.7c2.1-1,4.7-0.1,5.7,2c1,2.1,0.1,4.7-2,5.7c-17.3,8.4-34.2,17-50.4,25.6
				C1515.7,386.3,1515,386.5,1514.4,386.5z M1616.3,337.1c-1.6,0-3.2-0.9-3.9-2.5c-1-2.1,0-4.7,2.2-5.6
				c16.9-7.5,34.4-14.9,52.3-22.2c2.2-0.9,4.7,0.2,5.5,2.3c0.9,2.2-0.2,4.7-2.3,5.5c-17.7,7.2-35.2,14.7-52,22.1
				C1617.5,337,1616.9,337.1,1616.3,337.1z"/>
		</g>
		<g>
			<path fill="#C8D9EB" d="M1532.5,300.5l-9.4,74.8l8.9,12.5l23.3-15l79.8-32l111.1-71.9c0,0-6.7-5.8-18.6-5.4
				c-11.9,0.4-131.1,7.7-131.1,7.7l-54.8,12.6L1532.5,300.5z"/>
			<polygon fill="#A9C9DE" points="1558,329.4 1532,387.9 1599.7,366.2 			"/>
			<path fill="#EFF8FD" d="M1558,329.4c0,0,51,93.2,56.4,102.1c5.4,8.8,15.5,21.6,35.1-4.8c19.6-26.4,95.5-128.8,103.8-140.9
				c8.2-12.1,17.7-30.1-14.8-31.3c-32.4-1.2-201.6-11.9-225.9-13.4c-27.9-1.8-37.4,10.9-22.8,24.2c21.4,19.7,42.8,35.2,42.8,35.2
				l174.1-24.3L1558,329.4z"/>
		</g>
		<g>
			<g>
				<path fill="#A3DDEF" d="M1173.7,1247.1h-13.1c0-32.5-26.5-59-59-59c-32.5,0-59,26.5-59,59h-13.1c0-39.7,32.3-72.1,72.1-72.1
					C1141.4,1175,1173.7,1207.4,1173.7,1247.1z"/>
			</g>
			<g>
				<path fill="#A3DDEF" d="M1167.7,1247.7v52.5c14.5,0,26.3-11.8,26.3-26.3C1194,1259.4,1182.2,1247.7,1167.7,1247.7z"/>
				<path fill="#A3DDEF" d="M1171,1297.4c0,4.7-3.8,8.5-8.5,8.5l0,0c-4.7,0-8.5-3.8-8.5-8.5v-47c0-4.7,3.8-8.5,8.5-8.5l0,0
					c4.7,0,8.5,3.8,8.5,8.5V1297.4z"/>
				<path fill="#A3DDEF" d="M1035.6,1247.7v52.5c-14.5,0-26.3-11.8-26.3-26.3C1009.3,1259.4,1021.1,1247.7,1035.6,1247.7z"/>
				<path fill="#A3DDEF" d="M1032.4,1297.4c0,4.7,3.8,8.5,8.5,8.5l0,0c4.7,0,8.5-3.8,8.5-8.5v-47c0-4.7-3.8-8.5-8.5-8.5l0,0
					c-4.7,0-8.5,3.8-8.5,8.5V1297.4z"/>
			</g>
		</g>
		<path fill="#A3DDEF" d="M2156.7,1395.5c-24.2,0-43.8,19.6-43.8,43.8c0,24.2,43.8,93.4,43.8,93.4s43.8-69.2,43.8-93.4
			C2200.5,1415.1,2180.9,1395.5,2156.7,1395.5z M2156.7,1469.8c-16.8,0-30.5-13.6-30.5-30.5c0-16.8,13.6-30.5,30.5-30.5
			c16.8,0,30.5,13.6,30.5,30.5C2187.2,1456.2,2173.5,1469.8,2156.7,1469.8z"/>
		<circle fill="#A3DDEF" cx="2156.7" cy="1439.3" r="13.6"/>
		<polygon fill="#A3DDEF" points="1197.2,306.3 1251.1,359.8 1350.5,261.2 1322.6,233.6 1249.9,305.1 1224,279.6 		"/>
		<path fill="#A3DDEF" d="M595.2,1017.3c-2.7,0-5.3,0.3-7.8,0.9c-4.1-22.1-23.4-38.8-46.7-38.8c-23,0-42.1,16.3-46.5,38
			c-0.3,0-0.6,0-0.9,0c-20,0-36.2,16.2-36.2,36.2s16.2,36.2,36.2,36.2c13.5,0,87.5,0,102,0c20,0,36.2-16.2,36.2-36.2
			S615.2,1017.3,595.2,1017.3z"/>
		<path fill="#A3DDEF" d="M639.9,1017.3c-2.7,0-5.3,0.3-7.8,0.9c-4.1-22.1-23.4-38.8-46.7-38.8c-23,0-42.1,16.3-46.5,38
			c-0.3,0-0.6,0-0.9,0c-20,0-36.2,16.2-36.2,36.2s16.2,36.2,36.2,36.2c13.5,0,87.5,0,102,0c20,0,36.2-16.2,36.2-36.2
			S659.9,1017.3,639.9,1017.3z"/>
		<path fill="#A3DDEF" d="M1988.3,1693.2c-8.8-15,2.6-35.3-19.4-44c-21.2-8.4-34.1,16.2-34.1,16.2l-14.6,7.5l9.9,11.3
			c0,0-2.8,42.4,37,47.9c44.1,6,52.6-43.8,52.6-43.8S1997.1,1708.2,1988.3,1693.2z"/>
		<g>
			<polygon fill="#A3DDEF" points="436.6,755.9 494.6,789.4 436.6,823 			"/>
			<g>
				<path fill="#A3DDEF" d="M520.9,852.6H410.3c-12.8,0-23.3-10.4-23.3-23.3v-79.7c0-12.8,10.4-23.3,23.3-23.3h110.6
					c12.8,0,23.3,10.4,23.3,23.3v79.7C544.2,842.1,533.7,852.6,520.9,852.6z M410.3,741.3c-4.6,0-8.3,3.7-8.3,8.3v79.7
					c0,4.6,3.7,8.3,8.3,8.3h110.6c4.6,0,8.3-3.7,8.3-8.3v-79.7c0-4.6-3.7-8.3-8.3-8.3H410.3z"/>
			</g>
		</g>
		<polygon fill="#A3DDEF" points="2045.1,1233.5 2045.1,1157 1994.1,1157 1994.1,1233.5 1964,1233.5 2019.6,1289.9 2075.2,1233.5 		
			"/>
		<polygon fill="#A3DDEF" points="2073,1296.4 2073,1310 1966.1,1310 1966.1,1296.4 1955,1296.4 1955,1310 1955,1324 1966.1,1324 
			2073,1324 2084.2,1324 2084.2,1310 2084.2,1296.4 		"/>
		<g>
			<path fill="#A3DDEF" d="M1344.1,498h-56.7c-2.3,0-4.3-1.9-4.3-4.3s1.9-4.3,4.3-4.3h56.7c2.3,0,4.3,1.9,4.3,4.3
				S1346.5,498,1344.1,498z M1230.8,498h-56.7c-2.3,0-4.3-1.9-4.3-4.3s1.9-4.3,4.3-4.3h56.7c2.3,0,4.3,1.9,4.3,4.3
				S1233.1,498,1230.8,498z M1117.4,498h-56.7c-2.3,0-4.3-1.9-4.3-4.3s1.9-4.3,4.3-4.3h56.7c2.3,0,4.3,1.9,4.3,4.3
				S1119.7,498,1117.4,498z M1004,498h-56.7c-2.3,0-4.3-1.9-4.3-4.3s1.9-4.3,4.3-4.3h56.7c2.3,0,4.3,1.9,4.3,4.3
				S1006.3,498,1004,498z"/>
		</g>
		<g>
			<path fill="#A3DDEF" d="M1173.3,793.7h-56.7c-2.3,0-4.3-1.9-4.3-4.3s1.9-4.3,4.3-4.3h56.7c2.3,0,4.3,1.9,4.3,4.3
				S1175.7,793.7,1173.3,793.7z M1059.9,793.7h-56.7c-2.3,0-4.3-1.9-4.3-4.3s1.9-4.3,4.3-4.3h56.7c2.3,0,4.3,1.9,4.3,4.3
				S1062.3,793.7,1059.9,793.7z M946.6,793.7h-56.7c-2.3,0-4.3-1.9-4.3-4.3s1.9-4.3,4.3-4.3h56.7c2.3,0,4.3,1.9,4.3,4.3
				S948.9,793.7,946.6,793.7z M833.2,793.7h-56.7c-2.3,0-4.3-1.9-4.3-4.3s1.9-4.3,4.3-4.3h56.7c2.3,0,4.3,1.9,4.3,4.3
				S835.5,793.7,833.2,793.7z M719.8,793.7h-56.7c-2.3,0-4.3-1.9-4.3-4.3s1.9-4.3,4.3-4.3h56.7c2.3,0,4.3,1.9,4.3,4.3
				S722.1,793.7,719.8,793.7z M606.4,793.7h-3.8c-2.3,0-4.3-1.9-4.3-4.3s1.9-4.3,4.3-4.3h3.8c2.3,0,4.3,1.9,4.3,4.3
				S608.7,793.7,606.4,793.7z"/>
		</g>
		<path fill="#A3DDEF" d="M854.6,431.2H742.3c-6.6,0-12,5.4-12,12v65.2c0,6.6,5.4,12,12,12h10.2v35.8l38.9-35.8h63.2
			c6.6,0,12-5.4,12-12v-65.2C866.6,436.6,861.2,431.2,854.6,431.2z M820.7,498.2h-63.2c-2.5,0-4.4-2-4.4-4.4s2-4.4,4.4-4.4h63.2
			c2.5,0,4.4,2,4.4,4.4S823.1,498.2,820.7,498.2z M839.4,464.6h-82c-2.5,0-4.4-2-4.4-4.4s2-4.4,4.4-4.4h82c2.5,0,4.4,2,4.4,4.4
			S841.9,464.6,839.4,464.6z"/>
		<g>
			<path fill="#A3DDEF" d="M2063.6,1481.7h-56.7c-2.3,0-4.3-1.9-4.3-4.3s1.9-4.3,4.3-4.3h56.7c2.3,0,4.3,1.9,4.3,4.3
				S2066,1481.7,2063.6,1481.7z M1950.2,1481.7h-56.7c-2.3,0-4.3-1.9-4.3-4.3s1.9-4.3,4.3-4.3h56.7c2.3,0,4.3,1.9,4.3,4.3
				S1952.6,1481.7,1950.2,1481.7z M1836.9,1481.7h-56.7c-2.3,0-4.3-1.9-4.3-4.3s1.9-4.3,4.3-4.3h56.7c2.3,0,4.3,1.9,4.3,4.3
				S1839.2,1481.7,1836.9,1481.7z M1723.5,1481.7h-56.7c-2.3,0-4.3-1.9-4.3-4.3s1.9-4.3,4.3-4.3h56.7c2.3,0,4.3,1.9,4.3,4.3
				S1725.8,1481.7,1723.5,1481.7z"/>
		</g>
		<g>
			<path fill="#A3DDEF" d="M1870.3,1702.8h-56.7c-2.3,0-4.3-1.9-4.3-4.3s1.9-4.3,4.3-4.3h56.7c2.3,0,4.3,1.9,4.3,4.3
				S1872.6,1702.8,1870.3,1702.8z M1756.9,1702.8h-56.7c-2.3,0-4.3-1.9-4.3-4.3s1.9-4.3,4.3-4.3h56.7c2.3,0,4.3,1.9,4.3,4.3
				S1759.3,1702.8,1756.9,1702.8z M1643.5,1702.8h-56.7c-2.3,0-4.3-1.9-4.3-4.3s1.9-4.3,4.3-4.3h56.7c2.3,0,4.3,1.9,4.3,4.3
				S1645.9,1702.8,1643.5,1702.8z M1530.1,1702.8h-56.7c-2.3,0-4.3-1.9-4.3-4.3s1.9-4.3,4.3-4.3h56.7c2.3,0,4.3,1.9,4.3,4.3
				S1532.5,1702.8,1530.1,1702.8z"/>
		</g>
		<g>
			<path fill="#A3DDEF" d="M1256.8,1044.6h-56.7c-2.3,0-4.3-1.9-4.3-4.3s1.9-4.3,4.3-4.3h56.7c2.3,0,4.3,1.9,4.3,4.3
				S1259.2,1044.6,1256.8,1044.6z M1143.4,1044.6h-56.7c-2.3,0-4.3-1.9-4.3-4.3s1.9-4.3,4.3-4.3h56.7c2.3,0,4.3,1.9,4.3,4.3
				S1145.8,1044.6,1143.4,1044.6z M1030.1,1044.6h-56.7c-2.3,0-4.3-1.9-4.3-4.3s1.9-4.3,4.3-4.3h56.7c2.3,0,4.3,1.9,4.3,4.3
				S1032.4,1044.6,1030.1,1044.6z M916.7,1044.6H860c-2.3,0-4.3-1.9-4.3-4.3s1.9-4.3,4.3-4.3h56.7c2.3,0,4.3,1.9,4.3,4.3
				S919,1044.6,916.7,1044.6z M803.3,1044.6h-56.7c-2.3,0-4.3-1.9-4.3-4.3s1.9-4.3,4.3-4.3h56.7c2.3,0,4.3,1.9,4.3,4.3
				S805.6,1044.6,803.3,1044.6z"/>
		</g>
	</g>
	<g>
		<path fill="#A3DDEF" d="M937.8,1621.2c1.5,0,2.7-1.2,2.7-2.7v-31.1h31c1.5,0,2.7-1.2,2.7-2.7c0-1.5-1.2-2.7-2.7-2.7h-31v-31
			c0-1.5-1.2-2.7-2.7-2.7c-1.5,0-2.7,1.2-2.7,2.7v31H904c-1.5,0-2.7,1.2-2.7,2.7c0,1.5,1.2,2.7,2.7,2.7h31.1v31.1
			C935.1,1620,936.3,1621.2,937.8,1621.2z"/>
		<path fill="#A3DDEF" d="M516.4,1265.1c1.5,0,2.7-1.2,2.7-2.7v-31h31.1c1.5,0,2.7-1.2,2.7-2.7c0-1.5-1.2-2.7-2.7-2.7h-31.1v-31
			c0-1.5-1.2-2.7-2.7-2.7c-1.5,0-2.7,1.2-2.7,2.7v31h-31.1c-1.5,0-2.7,1.2-2.7,2.7c0,1.5,1.2,2.7,2.7,2.7h31.1v31
			C513.8,1263.9,515,1265.1,516.4,1265.1z"/>
		<path fill="#A3DDEF" d="M1089.4,1444.7c10.2,0,18.5-8.3,18.5-18.5c0-10.2-8.3-18.5-18.5-18.5c-10.2,0-18.5,8.3-18.5,18.5
			C1070.9,1436.4,1079.2,1444.7,1089.4,1444.7z M1089.4,1414.4c6.5,0,11.8,5.3,11.8,11.8c0,6.5-5.3,11.8-11.8,11.8
			c-6.5,0-11.8-5.3-11.8-11.8C1077.6,1419.7,1082.9,1414.4,1089.4,1414.4z"/>
		<path fill="#A3DDEF" d="M767.4,1471.3c10.2,0,18.5-8.3,18.5-18.5c0-10.2-8.3-18.5-18.5-18.5c-10.2,0-18.5,8.3-18.5,18.5
			C748.9,1463,757.2,1471.3,767.4,1471.3z M767.4,1441c6.5,0,11.8,5.3,11.8,11.8c0,6.5-5.3,11.8-11.8,11.8
			c-6.5,0-11.8-5.3-11.8-11.8C755.6,1446.3,760.9,1441,767.4,1441z"/>
	</g>
	<g>
		<path fill="#A3DDEF" d="M1996.7,892.9c1.5,0,2.7,1.2,2.7,2.7v31.1h31.1c1.5,0,2.7,1.2,2.7,2.7c0,1.5-1.2,2.7-2.7,2.7h-31.1v31
			c0,1.5-1.2,2.7-2.7,2.7s-2.7-1.2-2.7-2.7v-31H1963c-1.5,0-2.7-1.2-2.7-2.7c0-1.5,1.2-2.7,2.7-2.7h31.1v-31.1
			C1994.1,894.1,1995.3,892.9,1996.7,892.9z"/>
		<path fill="#A3DDEF" d="M2002.7,669.8c0,10.2,8.3,18.5,18.5,18.5c10.2,0,18.5-8.3,18.5-18.5c0-10.2-8.3-18.5-18.5-18.5
			C2011,651.3,2002.7,659.6,2002.7,669.8z M2009.4,669.8c0-6.5,5.3-11.8,11.8-11.8s11.8,5.3,11.8,11.8s-5.3,11.8-11.8,11.8
			S2009.4,676.3,2009.4,669.8z"/>
		<path fill="#A3DDEF" d="M2171,505.5c0,10.2,8.3,18.6,18.5,18.6c10.2,0,18.5-8.3,18.5-18.6c0-10.2-8.3-18.5-18.5-18.5
			C2179.3,487,2171,495.3,2171,505.5z M2177.7,505.5c0-6.5,5.3-11.8,11.8-11.8s11.8,5.3,11.8,11.8c0,6.5-5.3,11.8-11.8,11.8
			S2177.7,512,2177.7,505.5z"/>
	</g>
</g>
</svg>
